<svg width="209" height="229" viewBox="0 0 209 229" fill="none" xmlns="http://www.w3.org/2000/svg">
<path d="M186.082 30.8659C184.061 30.5686 179.783 29.7211 174.38 28.588M174.38 28.588C161.8 25.95 143.119 21.7645 132.612 19.373L129.505 20.1328M174.38 28.588C163.511 41.3186 137.863 28.7622 126.398 20.8927L129.505 20.1328M174.38 28.588C172.563 23.2311 166.016 12.8248 154.361 14.054C142.706 15.2832 132.934 18.6187 129.505 20.1328" stroke="#DFB3B3" stroke-width="0.492085"/>
<path d="M208.09 21.4307C205.461 22.0736 187.686 32.2466 182.794 31.9232C177.902 31.5997 163.897 39.584 162.224 39.9932M162.224 39.9932C160.551 40.4023 159.417 63.7294 149.725 68.6328C140.032 73.5361 128.672 77.8341 127.238 78.1848C126.091 78.4654 119.775 82.8808 116.76 85.0534L103.816 83.9129M162.224 39.9932C164.872 38.7344 164.757 37.2987 143.12 41.6259C116.074 47.0347 120.416 58.5765 115.509 61.2964C111.583 63.4723 106.078 77.2807 103.816 83.9129M162.224 39.9932L117.699 76.4651L103.816 83.9129" stroke="#DFB3B3" stroke-width="0.492085"/>
<path d="M212.057 15.9014L173.631 73.1714C175.375 89.9688 169.717 124.281 133.134 127.149" stroke="#DFB3B3" stroke-width="0.492085"/>
<path d="M192.393 45.28L204.258 93.7968M204.258 93.7968C211.256 94.4494 224.661 99.5467 222.292 114.716C219.923 129.885 208.46 135.491 203.025 136.398C200.178 136.841 193.3 135.991 188.562 129.044C182.639 120.361 185.633 106.711 189.887 103.391C194.141 100.071 197.083 96.5648 204.258 93.7968Z" stroke="#DFB3B3" stroke-width="0.492085"/>
<path d="M204.375 94.2751C210.667 96.8734 221.792 102.731 215.954 105.374C208.657 108.679 207.983 112.136 205.566 106.395C203.632 101.802 204.044 96.7201 204.492 94.7531C206.045 98.3416 208.051 105.787 203.654 106.863C199.256 107.938 195.904 105.212 194.778 103.714C194.093 101.602 195.053 96.7576 204.375 94.2751Z" stroke="#DFB3B3" stroke-width="0.492085"/>
<path d="M213.262 106.792C215.562 112.056 218.937 124.199 213.567 128.754C207.048 134.285 200.821 135.671 194.049 132.837M193.402 132.265C193.586 132.33 193.712 132.727 194.049 132.837M194.049 132.837C189.04 128.927 182.006 115.703 189.856 109.477L193.329 107.108L196.144 105.153" stroke="#DFB3B3" stroke-width="0.492085"/>
<path d="M184.034 57.7095C174.685 62.8996 159.229 70.8996 142.948 78.2071M95.5852 94.7917C92.3133 92.8056 84.9303 89.5454 81.5739 92.3925C77.3784 95.9515 81.9623 98.1233 82.9183 97.8895C83.8743 97.6557 89.1932 97.6549 96.071 94.7064L95.5852 94.7917ZM95.5852 94.7917C108.347 92.5985 126.089 85.774 142.948 78.2071M142.948 78.2071C139.494 79.7402 120.245 97.1172 116.903 102.75M116.903 102.75C116.707 103.079 116.566 103.368 116.486 103.611C116.352 106.515 115.14 112.401 111.367 112.715C110.069 113.624 107.153 115.164 105.87 114.06C104.266 112.679 106.867 103.684 116.903 102.75Z" stroke="#DFB3B3" stroke-width="0.492085"/>
<path d="M205.865 24.7615C208.782 33.9266 214.584 53.7843 214.457 59.8944M214.457 59.8944C217.626 62.4965 223.044 68.0781 219.36 69.5868C214.756 71.4728 212.376 70.0285 212.461 65.1952L214.457 59.8944Z" stroke="#DFB3B3" stroke-width="0.492085"/>
<path d="M133.315 126.851C127.667 111.009 128.108 78.6313 173.393 73.2301L133.315 126.851Z" stroke="#DFB3B3" stroke-width="0.492085"/>
<path d="M130.796 117.588C123.261 124.797 108.533 137.263 92.4762 147.327M63.9166 161.047C73.0978 158.351 83.0174 153.256 92.4762 147.327M92.4762 147.327C87.7957 143.034 72.8134 136.733 50.3288 145.88C45.2392 149.235 33.6539 157.86 28.0291 165.518C35.0704 169.453 51.2787 177.106 59.7808 176.243C70.4085 175.164 88.8062 171.677 93.0368 149.619L92.4762 147.327Z" stroke="#DFB3B3" stroke-width="0.492085"/>
<path d="M121.624 125.657C119.321 129.173 116.143 136.465 115.491 145.394M117.794 162.815C115.62 156.726 115.099 150.764 115.491 145.394M115.491 145.394C124.073 147.939 137.876 161.247 124.436 194.119C113.385 183.988 96.1245 160.06 115.491 145.394Z" stroke="#DFB3B3" stroke-width="0.492085"/>
<path d="M126.239 121.743C125.228 121.737 110.837 125.13 93.4816 127.619M42.6621 127.998C55.5182 131.717 76.0034 130.126 93.4816 127.619M42.6621 127.998C49.5401 117.801 69.3332 103.449 93.4816 127.619M42.6621 127.998C56.4138 146.114 82.2716 135.294 93.4816 127.619" stroke="#DFB3B3" stroke-width="0.492085"/>
</svg>
