<svg width="213" height="181" viewBox="0 0 213 181" fill="none" xmlns="http://www.w3.org/2000/svg">
<path d="M25.4385 172.88C27.3867 173.494 31.4758 175.009 36.6308 176.985M36.6308 176.985C48.6325 181.586 66.4122 188.683 76.407 192.711L79.5952 192.454M36.6308 176.985C49.3815 166.141 72.712 182.608 82.7833 192.197L79.5952 192.454M36.6308 176.985C37.5745 182.563 42.3874 193.876 54.0896 194.512C65.7918 195.147 75.9692 193.405 79.5952 192.454" stroke="#DFB3B3" stroke-width="0.492085"/>
<path d="M2.21191 178.703C4.90962 178.485 24.0742 171.262 28.8526 172.357C33.631 173.453 48.7253 167.792 50.442 167.653M50.442 167.653C52.1587 167.515 56.9797 144.663 67.3274 141.36C77.6751 138.057 89.5734 135.616 91.0449 135.497C92.2221 135.402 99.159 132.045 102.48 130.378L115.079 133.558M50.442 167.653C47.6285 168.476 47.514 169.912 69.5634 169.073C97.1251 168.024 94.669 155.939 99.9457 154.032C104.167 152.507 111.793 139.747 115.079 133.558M50.442 167.653L100.19 138.708L115.079 133.558" stroke="#DFB3B3" stroke-width="0.492085"/>
<path d="M-2.58203 183.533L44.4441 133.086C45.3875 116.224 56.4182 83.245 92.9932 86.2182" stroke="#DFB3B3" stroke-width="0.492085"/>
<path d="M21.4943 157.647L17.4775 107.862M17.4775 107.862C10.6712 106.107 -1.75487 98.9477 2.99129 84.3467C7.73745 69.7456 19.9443 66.029 25.4544 65.9959C28.3354 66.0103 34.9914 67.9417 38.5675 75.5521C43.0377 85.0651 37.9157 98.0673 33.1889 100.67C28.462 103.273 25.001 106.268 17.4775 107.862Z" stroke="#DFB3B3" stroke-width="0.492085"/>
<path d="M17.4383 107.371C11.638 103.807 1.58314 96.2589 7.76645 94.5752C15.4956 92.4705 16.7098 89.1636 18.1855 95.2156C19.366 100.057 18.1529 105.01 17.3988 106.881C16.4348 103.091 15.6349 95.4214 20.1474 95.0573C24.66 94.6932 27.5366 97.9169 28.4108 99.5743C28.7524 101.768 27.0362 106.399 17.4383 107.371Z" stroke="#DFB3B3" stroke-width="0.492085"/>
<path d="M10.6496 93.6026C9.21352 88.0411 7.80802 75.5162 13.833 71.8705C21.1474 67.4446 27.5152 67.0639 33.7519 70.937M34.2994 71.6035C34.1284 71.5106 34.0669 71.0985 33.7519 70.937M33.7519 70.937C38.077 75.5918 42.9231 89.7645 34.1854 94.6658L30.3802 96.4538L27.2909 97.9373" stroke="#DFB3B3" stroke-width="0.492085"/>
<path d="M31.7197 146.701C41.7743 143.06 58.3041 137.614 75.5381 132.982M124.932 124.123C127.848 126.603 134.62 130.994 138.385 128.715C143.092 125.867 138.911 122.995 137.93 123.074C136.949 123.154 131.698 122.31 124.439 124.13L124.932 124.123ZM124.932 124.123C111.985 124.264 93.3838 128.186 75.5381 132.982M75.5381 132.982C79.1916 132.017 100.954 117.914 105.148 112.884M105.148 112.884C105.393 112.59 105.578 112.327 105.696 112.099C106.289 109.253 108.419 103.635 112.195 103.922C113.62 103.231 116.743 102.173 117.835 103.467C119.2 105.085 115.204 113.553 105.148 112.884Z" stroke="#DFB3B3" stroke-width="0.492085"/>
<path d="M4.93746 175.768C3.51177 166.256 0.934076 145.729 2.02876 139.717M2.02876 139.717C-0.687532 136.645 -5.151 130.274 -1.27456 129.369C3.57099 128.238 5.69128 130.041 4.841 134.8L2.02876 139.717Z" stroke="#DFB3B3" stroke-width="0.492085"/>
<path d="M92.7681 86.4829C95.8303 103.021 90.2581 134.918 44.6896 133.066L92.7681 86.4829Z" stroke="#DFB3B3" stroke-width="0.492085"/>
<path d="M93.7842 96.0283C102.368 90.1062 118.887 80.1355 136.337 72.7467M166.712 63.7322C157.219 64.9373 146.617 68.394 136.337 72.7467M136.337 72.7467C140.277 77.7284 154.07 86.3262 177.721 80.8634C183.279 78.358 196.086 71.6802 202.854 65.0125C196.527 60.0102 181.738 49.8815 173.207 49.385C162.542 48.7644 143.825 49.2872 136.148 70.3945L136.337 72.7467Z" stroke="#DFB3B3" stroke-width="0.492085"/>
<path d="M104.12 89.5171C106.952 86.4112 111.247 79.7158 113.308 71.0032M113.798 53.4378C114.978 59.7944 114.547 65.7636 113.308 71.0032M113.308 71.0032C105.238 67.1288 93.7211 51.7994 112.207 21.4767C121.51 33.2327 134.756 59.5965 113.308 71.0032Z" stroke="#DFB3B3" stroke-width="0.492085"/>
<path d="M98.9427 92.6496C99.94 92.8151 114.687 91.7488 132.218 92.0449M182.453 99.7349C170.35 94.0233 149.872 92.3432 132.218 92.0449M182.453 99.7349C174.044 108.712 152.225 119.741 132.218 92.0449M182.453 99.7349C171.75 79.6663 144.503 86.2463 132.218 92.0449" stroke="#DFB3B3" stroke-width="0.492085"/>
</svg>
