<svg width="1023" height="582" viewBox="0 0 1023 582" fill="none" xmlns="http://www.w3.org/2000/svg">
<path d="M1110.78 464.071C1097.53 476.089 1068.2 485.827 1038.12 491.299C1008.05 496.772 976.962 498.612 946.677 499.999C906.639 501.835 865.866 502.973 831.367 498.47C783.286 492.193 753.02 475.742 729.209 458.606C686.933 428.18 659.027 393.9 637.32 358.615C614.05 320.792 595.925 280.216 531.867 253.87C474.383 230.228 398.926 227.09 309.992 227.019C227.046 226.953 136.532 234.749 61.3636 224.716C-37.2705 211.552 -87.783 169.938 -82.1967 124.764C-76.6104 79.5907 -21.6055 31.7692 51.8414 -10.6249" stroke="url(#paint0_linear_40016781_870)" stroke-width="0.110472" stroke-miterlimit="10"/>
<path d="M1108.72 470.704C1097.62 481.347 1069.83 489.41 1040.08 493.916C1010.41 498.408 979.305 499.895 949.486 500.653C910.229 501.65 869.792 502.261 835.543 497.168C786.863 489.931 754.427 472.915 728.462 455.448C684.209 425.682 655.009 391.886 631.795 357.255C607.103 320.418 588.582 280.636 524.734 254.852C466.492 231.332 391.349 227.422 304.34 226.271C223.145 225.118 135.847 231.298 63.4494 220.477C-31.2273 206.327 -79.3925 164.821 -74.6136 119.789C-69.9274 74.611 -19.5178 27.4484 50.6783 -14.9784" stroke="url(#paint1_linear_40016781_870)" stroke-width="0.110472" stroke-miterlimit="10"/>
<path d="M1106.64 477.437C1097.72 486.686 1071.59 493.045 1042.07 496.582C1012.89 500.077 981.689 501.221 952.334 501.336C913.881 501.487 873.769 501.55 839.767 495.876C790.483 487.651 755.909 470.084 727.725 452.282C681.617 423.16 650.987 389.88 626.243 355.903C600.143 320.059 581.179 281.077 517.559 255.858C458.544 232.465 383.657 227.855 298.662 225.529C219.182 223.355 135.205 227.831 65.5758 216.204C-25.0871 201.063 -70.9091 159.645 -66.9398 114.744C-63.1624 69.5491 -17.388 23.0465 49.5354 -19.4263" stroke="url(#paint2_linear_40016781_870)" stroke-width="0.110472" stroke-miterlimit="10"/>
<path d="M1104.06 484.237C1097.33 492.065 1072.97 496.688 1043.59 499.244C1015 501.732 983.651 502.523 954.761 501.986C917.151 501.287 877.375 500.774 843.625 494.526C793.749 485.29 757.076 467.186 726.622 449.056C678.783 420.577 646.618 387.864 620.328 354.56C592.842 319.742 573.404 281.588 510.051 256.945C450.27 233.693 375.711 228.329 292.741 224.856C215.036 221.604 134.434 224.396 67.6016 211.94C-18.9695 195.807 -62.4244 154.474 -59.2796 109.728C-56.4207 64.5369 -15.3302 18.7275 48.2675 -23.7691" stroke="url(#paint3_linear_40016781_870)" stroke-width="0.110472" stroke-miterlimit="10"/>
<path d="M1098.33 490.98C1093.82 497.339 1071.39 500.186 1042.13 501.72C1014.26 503.181 982.771 503.589 954.398 502.375C917.724 500.805 878.37 499.675 844.939 492.865C794.582 482.607 755.913 464.026 723.2 445.626C673.835 417.859 640.1 385.861 612.282 353.35C583.484 319.692 563.562 282.514 500.626 258.512C440.193 235.463 366.122 229.319 285.38 224.66C209.621 220.29 132.612 221.339 68.7082 208.051C-13.5463 190.946 -54.5552 149.82 -52.2468 105.404C-50.311 60.3884 -14.0253 15.4817 46.0924 -26.8418" stroke="url(#paint4_linear_40016781_870)" stroke-width="0.110472" stroke-miterlimit="10"/>
<path d="M1092.58 497.769C1090.31 502.648 1069.89 503.726 1040.67 504.215C1013.59 504.668 981.905 504.672 954.041 502.771C918.317 500.336 879.389 498.566 846.268 491.204C795.441 479.903 754.799 460.854 719.781 442.19C668.987 415.115 633.596 383.867 604.231 352.149C574.152 319.657 553.696 283.469 491.2 260.106C430.105 237.265 356.537 230.331 278.031 224.481C204.225 218.982 130.84 218.293 69.8662 204.153C-8.04678 186.086 -46.3599 145.124 -45.1375 101.064C-43.8939 56.205 -12.6753 12.2362 43.9462 -29.9088" stroke="url(#paint5_linear_40016781_870)" stroke-width="0.110472" stroke-miterlimit="10"/>
<path d="M1086.8 504.598C1086.77 507.987 1068.41 507.31 1039.19 506.723C1012.93 506.194 981.026 505.765 953.672 503.168C918.909 499.867 880.414 497.437 847.597 489.526C796.316 477.166 753.723 457.656 716.361 438.734C664.227 412.334 627.111 381.871 596.172 350.949C564.837 319.635 543.806 284.449 481.767 261.722C420 239.096 346.943 231.362 270.688 224.318C198.841 217.68 129.114 215.256 71.0635 200.243C-2.48318 181.224 -38.3088 140.43 -37.9693 96.7131C-37.6238 52.0354 -11.2825 8.99484 41.8336 -32.967" stroke="url(#paint6_linear_40016781_870)" stroke-width="0.110472" stroke-miterlimit="10"/>
<path d="M1081 511.464C1083.21 513.352 1066.95 510.942 1037.71 509.239C1012.29 507.759 980.151 506.864 953.307 503.56C919.51 499.399 881.464 496.286 848.936 487.835C797.218 474.398 752.696 454.43 712.939 435.262C659.548 409.52 620.646 379.875 588.104 349.754C555.546 319.623 533.887 285.455 472.323 263.367C409.876 240.962 337.348 232.417 263.356 224.171C193.478 216.384 127.433 212.23 72.3072 196.324C3.14626 176.369 -30.1887 135.72 -30.7286 92.3507C-31.2826 47.8568 -9.83011 5.75493 39.7643 -36.0158" stroke="url(#paint7_linear_40016781_870)" stroke-width="0.110472" stroke-miterlimit="10"/>
<path d="M1075.18 518.364C1079.64 518.742 1065.49 514.623 1036.21 511.764C1011.63 509.362 979.271 507.973 952.941 503.95C920.113 498.935 882.533 495.116 850.289 486.131C798.148 471.601 751.722 451.179 709.53 431.776C654.959 406.679 614.218 377.88 580.043 348.571C546.301 319.631 523.959 286.496 462.896 265.045C399.76 242.867 327.774 233.5 256.056 224.05C188.154 215.103 125.814 209.23 73.6167 192.409C8.84883 171.535 -21.9839 131.01 -23.4033 87.9951C-24.8626 43.6857 -8.30497 2.53595 37.7552 -39.0362" stroke="url(#paint8_linear_40016781_870)" stroke-width="0.110472" stroke-miterlimit="10"/>
<path d="M1069.34 525.281C1076.05 524.14 1063.99 518.338 1034.72 514.28C1010.95 510.985 978.394 509.071 952.584 504.318C920.72 498.451 883.633 493.906 851.663 484.391C799.123 468.754 750.807 447.878 706.138 428.252C650.448 403.784 607.838 375.863 571.997 347.369C537.106 319.628 514.024 287.543 453.481 266.728C389.648 244.784 318.227 234.582 248.792 223.925C182.873 213.808 124.255 206.225 74.9985 188.462C14.6256 166.69 -13.6866 126.265 -15.9827 83.6079C-18.3584 39.5005 -6.7117 -0.68548 35.8081 -42.0508" stroke="url(#paint9_linear_40016781_870)" stroke-width="0.110472" stroke-miterlimit="10"/>
<path d="M1063.48 532.217C1072.46 529.548 1062.44 522.088 1033.22 516.793C1010.24 512.627 977.509 510.164 952.233 504.672C921.333 497.959 884.758 492.67 853.052 482.628C800.132 465.869 749.948 444.539 702.762 424.705C646.016 400.853 601.506 373.84 563.966 346.168C527.97 319.63 504.096 288.615 444.091 268.435C379.555 246.729 308.712 235.684 241.567 223.815C177.647 212.516 122.749 203.237 76.4547 184.508C20.4721 161.86 -5.29134 121.511 -8.46762 79.2217C-11.7653 35.3187 -5.03394 -3.88892 33.9251 -45.039" stroke="url(#paint10_linear_40016781_870)" stroke-width="0.110472" stroke-miterlimit="10"/>
<path d="M1057.62 539.152C1068.85 534.947 1060.84 525.85 1031.73 519.281C1009.49 514.262 976.627 511.234 951.892 504.992C921.948 497.435 885.913 491.384 854.47 480.822C801.193 462.929 749.162 441.143 699.42 421.114C641.671 397.864 595.243 371.785 555.97 344.946C518.907 319.617 494.184 289.692 434.742 270.144C369.492 248.687 299.254 236.784 234.413 223.701C172.504 211.211 121.326 200.253 78.0181 180.53C26.4147 157.03 3.22745 116.733 -0.824779 74.8206C-5.04645 31.1303 -3.24231 -7.08487 32.1504 -48.0093" stroke="url(#paint11_linear_40016781_870)" stroke-width="0.110472" stroke-miterlimit="10"/>
<path d="M1051.75 546.069C1065.25 540.321 1059.18 529.606 1030.24 521.734C1008.7 515.875 975.751 512.268 951.574 505.267C922.578 496.872 887.119 490.042 855.92 478.963C802.311 459.924 748.451 437.679 696.116 417.476C637.418 394.819 589.064 369.695 548.02 343.702C509.935 319.586 484.306 290.775 425.445 271.86C359.472 250.66 289.867 237.886 227.334 223.59C167.449 209.898 119.976 197.277 79.6855 176.537C32.434 152.211 11.87 111.942 6.94631 70.4162C1.7966 26.9479 -1.33327 -10.2608 30.4819 -50.9469" stroke="url(#paint12_linear_40016781_870)" stroke-width="0.110472" stroke-miterlimit="10"/>
<path d="M1045.92 552.923C1061.69 545.629 1057.51 533.312 1028.81 524.113C1007.94 517.423 974.926 513.227 951.331 505.462C923.276 496.232 888.419 488.611 857.468 477.018C803.557 456.826 747.89 434.121 692.931 413.762C633.339 391.686 583.056 367.546 540.202 342.415C501.154 319.514 474.555 291.847 416.304 273.563C349.608 252.63 280.664 238.973 220.456 223.463C162.615 208.563 118.825 194.3 81.6004 172.518C38.6694 147.398 20.777 107.142 14.9843 66.0202C8.89561 22.7935 0.82804 -13.3855 29.0491 -53.8111" stroke="url(#paint13_linear_40016781_870)" stroke-width="0.110472" stroke-miterlimit="10"/>
<path d="M1040.15 559.64C1058.2 550.798 1055.83 536.894 1027.45 526.356C1007.21 518.841 974.175 514.052 951.171 505.517C924.054 495.457 889.832 487.035 859.126 474.937C804.943 453.59 747.498 430.423 689.893 409.932C629.452 388.431 577.262 365.295 532.567 341.046C492.605 319.364 464.986 292.871 407.371 275.22C339.96 254.568 271.715 240.018 213.835 223.298C158.061 207.183 117.921 191.303 83.8223 168.464C45.1766 142.58 30.0122 102.331 23.3563 61.6361C16.3269 18.6778 3.3228 -16.4537 27.9394 -56.5908" stroke="url(#paint14_linear_40016781_870)" stroke-width="0.110472" stroke-miterlimit="10"/>
<path d="M1034.47 566.185C1054.78 555.801 1054.19 540.325 1026.18 528.437C1006.54 520.104 973.526 514.719 951.137 505.413C924.95 494.528 891.402 485.299 860.935 472.701C806.517 450.197 747.318 426.569 687.047 405.968C625.809 385.036 571.737 362.921 525.166 339.575C484.349 319.114 455.655 293.828 398.711 276.81C330.581 256.45 263.078 240.999 207.548 223.074C153.865 205.744 117.336 188.273 86.4184 164.362C52.0046 137.753 39.6373 97.5078 32.1185 57.266C24.1441 14.6009 6.20655 -19.4545 27.207 -59.2777" stroke="url(#paint15_linear_40016781_870)" stroke-width="0.110472" stroke-miterlimit="10"/>
<path d="M1028.89 572.536C1051.46 560.618 1052.59 543.587 1025.01 530.348C1005.95 521.199 972.98 515.222 951.219 505.144C925.958 493.443 893.114 483.403 862.892 470.312C808.271 446.655 747.357 422.563 684.403 401.874C622.413 381.503 566.493 360.421 518.011 338.001C476.396 318.758 446.573 294.709 390.331 278.323C321.493 258.269 254.772 241.909 201.596 222.787C150.027 204.246 117.059 185.212 89.3814 160.224C59.1484 132.923 49.6425 92.6845 41.2657 52.919C32.3426 10.5772 9.47663 -22.3845 26.8546 -61.8627" stroke="url(#paint16_linear_40016781_870)" stroke-width="0.110472" stroke-miterlimit="10"/>
<path d="M1023.41 578.711C1048.23 565.269 1051.04 546.695 1023.95 532.107C1005.44 522.146 972.53 515.581 951.419 504.734C927.073 492.224 894.963 481.371 864.981 467.796C810.186 442.989 747.586 418.429 681.934 397.678C619.232 377.86 561.503 357.817 511.073 336.345C468.718 318.31 437.716 295.531 382.196 279.775C312.653 260.038 246.755 242.763 195.931 222.457C146.497 202.705 117.017 182.142 92.6607 156.07C66.5407 128.111 59.9599 87.8827 50.7329 48.6138C40.8655 6.61226 13.0807 -25.2402 26.8337 -64.3536" stroke="url(#paint17_linear_40016781_870)" stroke-width="0.110472" stroke-miterlimit="10"/>
<path d="M1018.03 584.741C1045.09 569.784 1049.54 549.682 1022.97 533.753C1005 522.984 972.167 515.834 951.722 504.22C928.286 490.908 896.936 479.241 867.191 465.189C812.254 439.235 747.993 414.202 679.624 393.409C616.247 374.135 556.745 355.127 504.331 334.622C461.288 317.784 429.053 296.301 374.289 281.17C304.033 261.76 238.995 243.565 190.529 222.082C143.246 201.127 117.182 179.059 96.2119 151.902C74.1342 123.31 70.5464 83.0944 60.4736 44.338C49.653 2.69669 16.972 -28.0414 27.094 -66.7743" stroke="url(#paint18_linear_40016781_870)" stroke-width="0.110472" stroke-miterlimit="10"/>
<path d="M1012.72 590.659C1042.02 574.201 1048.07 552.578 1022.06 535.315C1004.62 523.738 971.875 516.011 952.105 503.634C929.569 489.525 899.004 477.049 869.491 462.526C814.435 435.43 748.538 409.916 677.437 389.101C613.413 370.358 552.188 352.38 497.744 332.863C454.064 317.203 420.549 297.04 366.551 282.529C295.583 263.456 231.438 244.336 185.317 221.69C140.198 199.536 117.468 175.988 99.9561 147.747C81.8508 118.544 81.3167 78.3457 70.4077 40.1088C58.6326 -1.1597 21.0636 -30.7814 27.5655 -69.1228" stroke="url(#paint19_linear_40016781_870)" stroke-width="0.110472" stroke-miterlimit="10"/>
<path d="M1007.47 596.452C1039 578.501 1046.63 555.367 1021.2 536.78C1004.27 524.399 971.626 516.101 952.545 502.964C930.901 488.066 901.133 474.782 871.854 459.791C816.7 431.558 749.192 405.552 675.339 384.734C610.692 366.511 547.782 349.549 491.273 331.04C447 316.54 412.155 297.719 358.95 283.821C287.258 265.094 224.038 245.042 180.262 221.243C137.318 197.898 117.836 172.891 103.851 143.569C89.6427 113.772 92.2257 73.5964 80.4803 35.8842C67.7508 -5.0053 25.3099 -33.5087 28.1875 -71.4535" stroke="url(#paint20_linear_40016781_870)" stroke-width="0.110472" stroke-miterlimit="10"/>
<path d="M1002.29 602.184C1036.05 582.752 1045.23 558.115 1020.41 538.213C1003.96 525.028 971.436 516.165 953.045 502.276C932.284 486.592 903.335 472.505 874.278 457.052C819.047 427.685 749.951 401.177 673.333 380.374C608.085 362.659 543.532 346.696 484.92 329.22C440.097 315.857 403.883 298.402 351.481 285.109C279.061 266.738 216.792 245.753 175.348 220.809C134.592 196.277 118.268 169.827 107.88 139.432C97.4999 109.05 103.251 68.9052 90.6838 31.7216C76.9952 -8.78103 29.7017 -36.1712 28.9668 -73.7162" stroke="url(#paint21_linear_40016781_870)" stroke-width="0.110472" stroke-miterlimit="10"/>
<path d="M997.16 607.822C1033.13 586.918 1043.85 560.785 1019.65 539.58C1003.69 525.592 971.272 516.17 953.587 501.532C933.7 485.07 905.588 470.181 876.748 454.273C821.464 423.776 750.795 396.751 671.389 375.984C605.555 358.766 539.408 343.779 478.643 327.36C433.308 315.111 395.685 299.044 344.097 286.35C270.931 268.345 209.65 246.417 170.53 220.339C131.962 194.631 118.719 166.747 111.994 135.289C105.374 104.328 114.345 64.2242 100.958 27.5711C86.3073 -12.5417 34.1808 -38.8259 29.8385 -75.9674" stroke="url(#paint22_linear_40016781_870)" stroke-width="0.110472" stroke-miterlimit="10"/>
<path d="M992.081 613.407C1030.27 591.039 1042.49 563.418 1018.93 540.917C1003.44 526.128 971.148 516.153 954.173 500.77C935.151 483.531 907.888 467.847 879.262 451.486C823.934 419.862 751.719 392.311 669.51 371.596C603.101 354.862 535.406 340.824 472.455 325.491C426.633 314.33 387.573 299.674 336.813 287.569C262.889 269.942 202.62 247.065 165.812 219.861C129.444 192.981 119.195 163.671 116.191 131.162C113.275 99.6219 125.506 59.5738 111.308 23.4488C95.6975 -16.2731 38.7489 -41.4543 30.8054 -78.1968" stroke="url(#paint23_linear_40016781_870)" stroke-width="0.110472" stroke-miterlimit="10"/>
<path d="M987.053 618.932C1027.44 595.11 1041.17 566.002 1018.25 542.219C1003.24 526.631 971.055 516.109 954.795 499.987C936.633 481.977 910.227 465.501 881.81 448.692C826.457 415.947 752.71 387.85 667.678 367.206C600.709 350.946 531.495 337.829 466.33 323.609C420.047 313.509 379.52 300.288 329.596 288.765C254.898 271.526 195.671 247.694 161.165 219.37C126.996 191.326 119.681 160.592 120.439 127.049C121.168 94.9254 136.696 54.9462 121.693 19.3494C105.118 -19.9793 43.3635 -44.0678 31.8276 -80.4098" stroke="url(#paint24_linear_40016781_870)" stroke-width="0.110472" stroke-miterlimit="10"/>
<path d="M982.071 624.403C1024.66 599.137 1039.87 568.55 1017.61 543.494C1003.05 527.108 970.996 516.043 955.457 499.187C938.144 480.409 912.606 463.148 884.398 445.891C829.036 412.028 753.777 383.375 665.91 362.821C598.388 347.025 527.697 334.795 460.291 321.721C413.563 312.66 371.553 300.891 322.479 289.942C246.993 273.101 188.837 248.306 156.621 218.872C124.661 189.673 120.2 157.515 124.779 122.956C129.11 90.2439 147.958 50.3538 132.16 15.2827C114.616 -23.6518 48.079 -46.6528 32.9578 -82.599" stroke="url(#paint25_linear_40016781_870)" stroke-width="0.110472" stroke-miterlimit="10"/>
<path d="M977.488 629.299C1022.23 602.643 1038.91 570.63 1017.33 544.344C1003.24 527.182 971.318 515.59 956.511 498.025C940.057 478.507 915.413 460.485 887.42 442.805C832.101 407.865 755.401 378.667 664.748 358.227C596.729 342.892 524.643 331.515 455.018 319.624C407.884 311.575 364.416 301.288 316.233 290.908C239.995 274.487 182.975 248.746 153.053 218.244C123.323 187.933 121.667 154.394 130.086 118.89C137.973 85.627 160.148 45.9031 143.563 11.4018C125.062 -27.0886 53.811 -48.9954 35.1234 -84.5006" stroke="url(#paint26_linear_40016781_870)" stroke-width="0.110472" stroke-miterlimit="10"/>
<path d="M972.928 634.204C1019.82 606.165 1037.95 572.727 1017.05 545.221C1003.42 527.283 971.641 515.171 957.568 496.903C941.963 476.646 918.22 457.87 890.437 439.769C835.171 403.756 757.039 373.995 663.586 353.688C595.075 338.801 521.609 328.242 449.751 317.562C402.213 310.497 357.281 301.708 309.989 291.89C232.978 275.902 177.112 249.205 149.479 217.64C121.974 186.226 123.066 151.298 135.353 114.867C146.759 81.0382 172.264 41.4956 154.905 7.55354C135.443 -30.4989 59.4941 -51.327 37.255 -86.4009" stroke="url(#paint27_linear_40016781_870)" stroke-width="0.110472" stroke-miterlimit="10"/>
<path d="M968.401 639.104C1017.45 609.687 1037.01 574.832 1016.79 546.114C1003.62 527.403 971.978 514.773 958.637 495.805C943.875 474.812 921.031 455.286 893.459 436.764C838.253 399.68 758.707 369.338 662.434 349.18C593.428 334.73 518.602 324.949 444.505 315.512C396.554 309.406 350.161 302.129 303.771 292.862C225.963 277.32 171.282 249.657 145.913 217.037C120.631 184.525 124.432 148.201 140.596 110.866C155.495 76.457 184.161 37.1413 166.207 3.71601C145.592 -33.8716 65.1571 -53.6667 39.3776 -88.3229" stroke="url(#paint28_linear_40016781_870)" stroke-width="0.110472" stroke-miterlimit="10"/>
<path d="M963.89 644.03C1015.08 613.243 1036.08 576.97 1016.54 547.047C1003.82 527.562 972.31 514.421 959.706 494.757C945.776 473.031 923.841 452.761 896.467 433.819C841.33 395.668 760.384 364.729 661.279 344.736C591.775 330.714 515.591 321.67 439.265 313.508C390.883 308.333 343.047 302.586 297.552 293.861C218.925 278.781 165.616 250.103 142.336 216.466C119.442 182.827 125.744 145.132 145.798 106.911C164.163 71.9088 196.213 32.7933 177.444 -0.0822948C155.926 -37.2564 70.7701 -55.9871 41.4666 -90.2323" stroke="url(#paint29_linear_40016781_870)" stroke-width="0.110472" stroke-miterlimit="10"/>
<path d="M959.417 648.951C1012.74 616.798 1035.17 579.11 1016.31 547.993C1004.03 527.737 972.566 514.103 960.786 493.732C947.584 471.294 926.765 450.234 899.485 430.905C844.633 391.628 762.089 360.136 660.138 340.323C590.139 326.719 512.588 318.377 434.048 311.519C385.21 307.256 335.956 303.051 291.36 294.856C211.89 280.253 159.722 250.602 138.768 215.899C118.008 181.195 127.035 142.063 150.979 102.977C172.796 67.3629 208.226 28.4618 188.643 -3.87246C166.22 -40.6387 76.3669 -58.3168 43.5446 -92.1595" stroke="url(#paint30_linear_40016781_870)" stroke-width="0.110472" stroke-miterlimit="10"/>
<path d="M954.96 653.877C1010.41 620.363 1034.26 581.263 1016.08 548.958C1004.25 527.931 973.011 513.773 961.869 492.732C949.593 469.544 929.483 447.797 902.491 428.024C847.516 387.744 763.801 355.563 658.999 335.943C588.5 322.746 509.571 315.072 428.834 309.549C379.509 306.173 328.869 303.527 285.171 295.853C204.832 281.748 153.829 251.105 135.193 215.339C116.557 179.572 128.292 138.998 156.128 99.0643C181.383 62.8248 220.182 24.1526 199.79 -7.64615C176.467 -44.0134 81.9237 -60.6448 45.5913 -94.094" stroke="url(#paint31_linear_40016781_870)" stroke-width="0.110472" stroke-miterlimit="10"/>
<defs>
<linearGradient id="paint0_linear_40016781_870" x1="603.25" y1="221.514" x2="494.373" y2="449.332" gradientUnits="userSpaceOnUse">
<stop stop-color="#FFC6C5"/>
<stop offset="1" stop-color="#FFFBEC"/>
</linearGradient>
<linearGradient id="paint1_linear_40016781_870" x1="594.424" y1="224.636" x2="491.145" y2="440.495" gradientUnits="userSpaceOnUse">
<stop stop-color="#FFC6C5"/>
<stop offset="1" stop-color="#FFFBEC"/>
</linearGradient>
<linearGradient id="paint2_linear_40016781_870" x1="585.668" y1="227.858" x2="488" y2="431.73" gradientUnits="userSpaceOnUse">
<stop stop-color="#FFC6C5"/>
<stop offset="1" stop-color="#FFFBEC"/>
</linearGradient>
<linearGradient id="paint3_linear_40016781_870" x1="578.52" y1="230.576" x2="485.928" y2="423.608" gradientUnits="userSpaceOnUse">
<stop stop-color="#FFC6C5"/>
<stop offset="1" stop-color="#FFFBEC"/>
</linearGradient>
<linearGradient id="paint4_linear_40016781_870" x1="580.834" y1="229.799" x2="489.958" y2="419.15" gradientUnits="userSpaceOnUse">
<stop stop-color="#FFC6C5"/>
<stop offset="1" stop-color="#FFFBEC"/>
</linearGradient>
<linearGradient id="paint5_linear_40016781_870" x1="583.251" y1="229.067" x2="494.055" y2="414.814" gradientUnits="userSpaceOnUse">
<stop stop-color="#FFC6C5"/>
<stop offset="1" stop-color="#FFFBEC"/>
</linearGradient>
<linearGradient id="paint6_linear_40016781_870" x1="585.754" y1="228.371" x2="498.176" y2="410.646" gradientUnits="userSpaceOnUse">
<stop stop-color="#FFC6C5"/>
<stop offset="1" stop-color="#FFFBEC"/>
</linearGradient>
<linearGradient id="paint7_linear_40016781_870" x1="588.342" y1="227.707" x2="502.316" y2="406.654" gradientUnits="userSpaceOnUse">
<stop stop-color="#FFC6C5"/>
<stop offset="1" stop-color="#FFFBEC"/>
</linearGradient>
<linearGradient id="paint8_linear_40016781_870" x1="591.013" y1="227.083" x2="506.459" y2="402.871" gradientUnits="userSpaceOnUse">
<stop stop-color="#FFC6C5"/>
<stop offset="1" stop-color="#FFFBEC"/>
</linearGradient>
<linearGradient id="paint9_linear_40016781_870" x1="593.767" y1="226.474" x2="510.596" y2="399.291" gradientUnits="userSpaceOnUse">
<stop stop-color="#FFC6C5"/>
<stop offset="1" stop-color="#FFFBEC"/>
</linearGradient>
<linearGradient id="paint10_linear_40016781_870" x1="596.595" y1="225.894" x2="514.702" y2="395.967" gradientUnits="userSpaceOnUse">
<stop stop-color="#FFC6C5"/>
<stop offset="1" stop-color="#FFFBEC"/>
</linearGradient>
<linearGradient id="paint11_linear_40016781_870" x1="599.526" y1="225.324" x2="518.788" y2="392.917" gradientUnits="userSpaceOnUse">
<stop stop-color="#FFC6C5"/>
<stop offset="1" stop-color="#FFFBEC"/>
</linearGradient>
<linearGradient id="paint12_linear_40016781_870" x1="602.529" y1="224.761" x2="522.787" y2="390.212" gradientUnits="userSpaceOnUse">
<stop stop-color="#FFC6C5"/>
<stop offset="1" stop-color="#FFFBEC"/>
</linearGradient>
<linearGradient id="paint13_linear_40016781_870" x1="605.669" y1="224.204" x2="526.625" y2="388.145" gradientUnits="userSpaceOnUse">
<stop stop-color="#FFC6C5"/>
<stop offset="1" stop-color="#FFFBEC"/>
</linearGradient>
<linearGradient id="paint14_linear_40016781_870" x1="608.99" y1="223.63" x2="530.227" y2="386.949" gradientUnits="userSpaceOnUse">
<stop stop-color="#FFC6C5"/>
<stop offset="1" stop-color="#FFFBEC"/>
</linearGradient>
<linearGradient id="paint15_linear_40016781_870" x1="612.533" y1="223.034" x2="533.566" y2="386.759" gradientUnits="userSpaceOnUse">
<stop stop-color="#FFC6C5"/>
<stop offset="1" stop-color="#FFFBEC"/>
</linearGradient>
<linearGradient id="paint16_linear_40016781_870" x1="616.288" y1="222.42" x2="536.629" y2="387.585" gradientUnits="userSpaceOnUse">
<stop stop-color="#FFC6C5"/>
<stop offset="1" stop-color="#FFFBEC"/>
</linearGradient>
<linearGradient id="paint17_linear_40016781_870" x1="620.231" y1="221.794" x2="539.444" y2="389.325" gradientUnits="userSpaceOnUse">
<stop stop-color="#FFC6C5"/>
<stop offset="1" stop-color="#FFFBEC"/>
</linearGradient>
<linearGradient id="paint18_linear_40016781_870" x1="624.342" y1="221.156" x2="542.08" y2="391.789" gradientUnits="userSpaceOnUse">
<stop stop-color="#FFC6C5"/>
<stop offset="1" stop-color="#FFFBEC"/>
</linearGradient>
<linearGradient id="paint19_linear_40016781_870" x1="628.57" y1="220.525" x2="544.563" y2="394.835" gradientUnits="userSpaceOnUse">
<stop stop-color="#FFC6C5"/>
<stop offset="1" stop-color="#FFFBEC"/>
</linearGradient>
<linearGradient id="paint20_linear_40016781_870" x1="632.882" y1="219.864" x2="546.914" y2="398.31" gradientUnits="userSpaceOnUse">
<stop stop-color="#FFC6C5"/>
<stop offset="1" stop-color="#FFFBEC"/>
</linearGradient>
<linearGradient id="paint21_linear_40016781_870" x1="637.286" y1="219.228" x2="549.173" y2="402.201" gradientUnits="userSpaceOnUse">
<stop stop-color="#FFC6C5"/>
<stop offset="1" stop-color="#FFFBEC"/>
</linearGradient>
<linearGradient id="paint22_linear_40016781_870" x1="641.735" y1="218.573" x2="551.333" y2="406.38" gradientUnits="userSpaceOnUse">
<stop stop-color="#FFC6C5"/>
<stop offset="1" stop-color="#FFFBEC"/>
</linearGradient>
<linearGradient id="paint23_linear_40016781_870" x1="646.245" y1="217.917" x2="553.438" y2="410.807" gradientUnits="userSpaceOnUse">
<stop stop-color="#FFC6C5"/>
<stop offset="1" stop-color="#FFFBEC"/>
</linearGradient>
<linearGradient id="paint24_linear_40016781_870" x1="650.779" y1="217.261" x2="555.48" y2="415.417" gradientUnits="userSpaceOnUse">
<stop stop-color="#FFC6C5"/>
<stop offset="1" stop-color="#FFFBEC"/>
</linearGradient>
<linearGradient id="paint25_linear_40016781_870" x1="655.38" y1="216.604" x2="557.466" y2="420.292" gradientUnits="userSpaceOnUse">
<stop stop-color="#FFC6C5"/>
<stop offset="1" stop-color="#FFFBEC"/>
</linearGradient>
<linearGradient id="paint26_linear_40016781_870" x1="660.563" y1="215.93" x2="558.644" y2="428.107" gradientUnits="userSpaceOnUse">
<stop stop-color="#FFC6C5"/>
<stop offset="1" stop-color="#FFFBEC"/>
</linearGradient>
<linearGradient id="paint27_linear_40016781_870" x1="665.717" y1="215.271" x2="559.811" y2="435.901" gradientUnits="userSpaceOnUse">
<stop stop-color="#FFC6C5"/>
<stop offset="1" stop-color="#FFFBEC"/>
</linearGradient>
<linearGradient id="paint28_linear_40016781_870" x1="670.871" y1="214.606" x2="560.989" y2="443.668" gradientUnits="userSpaceOnUse">
<stop stop-color="#FFC6C5"/>
<stop offset="1" stop-color="#FFFBEC"/>
</linearGradient>
<linearGradient id="paint29_linear_40016781_870" x1="676" y1="213.967" x2="562.156" y2="451.436" gradientUnits="userSpaceOnUse">
<stop stop-color="#FFC6C5"/>
<stop offset="1" stop-color="#FFFBEC"/>
</linearGradient>
<linearGradient id="paint30_linear_40016781_870" x1="681.125" y1="213.325" x2="563.331" y2="459.174" gradientUnits="userSpaceOnUse">
<stop stop-color="#FFC6C5"/>
<stop offset="1" stop-color="#FFFBEC"/>
</linearGradient>
<linearGradient id="paint31_linear_40016781_870" x1="686.227" y1="212.687" x2="564.495" y2="466.895" gradientUnits="userSpaceOnUse">
<stop stop-color="#FFC6C5"/>
<stop offset="1" stop-color="#FFFBEC"/>
</linearGradient>
</defs>
</svg>
